<svg id="Lag_1" data-name="Lag 1" xmlns="http://www.w3.org/2000/svg" viewBox="0 0 300 70"><path d="M6.77,62V11.66h19.8c9.51,0,13.4,3.89,13.4,10.73v5.19c0,4.17-1.73,6.55-5.62,8.2,4.61.94,7.35,4.4,7.35,9.29V50.4C41.7,57.53,37.09,62,27.94,62ZM30.39,23.61c0-2.8-1.51-4.1-5-4.1H16.28V32.76h9.07c3.67,0,5-1.73,5-4.68Zm1.8,21.82c0-3.38-1.51-5-5.33-5H16.28V54.15H26c4.32,0,6.19-1.23,6.19-4.9Z" style="fill:#eaad49"/><path d="M57.72,15.14V5H66.5V15.14ZM49.76,62V26.93h8.78V62Z" style="fill:#eaad49"/><path d="M87.27,61.35a24.4,24.4,0,0,1-7.71,1.36c-6.4,0-9.64-3-9.64-9.29V33.91H64.66v-7h5.26V18.21L78.7,17v9.94h9l-.57,7H78.7V52.27c0,1.88.86,3.1,3.17,3.1a17,17,0,0,0,4.39-.72Z" style="fill:#eaad49"/><path d="M140.34,50.69l9.57-39h9.43L146.89,62H134.07l-9.22-40.54L115.56,62H102.75L90.29,11.66h9.43l9.58,39,9.15-39h12.74Z"/><path d="M177.05,62.71c-12,0-15.26-6.62-15.26-13.82V40c0-7.2,3.24-13.82,15.26-13.82S192.32,32.83,192.32,40v8.86C192.32,56.09,189.08,62.71,177.05,62.71Zm0-29c-4.68,0-6.48,2.08-6.48,6v9.44c0,4,1.8,6,6.48,6s6.48-2.09,6.48-6V39.74C183.53,35.78,181.73,33.7,177.05,33.7Z"/><path d="M218.88,34.27a69.58,69.58,0,0,0-9.29,5.11V62h-8.78V26.93h7.42l.57,3.89c1.95-1.3,6.93-4.23,10-5.1Z"/><path d="M224.79,62V12.6l8.78-1.23V62ZM254.6,26.93,244.3,44.28,255,62h-9.65L234.8,44.28l10-17.35Z"/><path d="M272.23,62.71a41.37,41.37,0,0,1-12.09-2l1.22-6.7a39,39,0,0,0,10.44,1.51c3.89,0,4.47-.86,4.47-3.52,0-2.16-.44-3.24-6.12-4.61-8.57-2.09-9.58-4.25-9.58-11,0-7.06,3.1-10.15,13.1-10.15a46.37,46.37,0,0,1,10.52,1.22l-.87,7a61,61,0,0,0-9.65-1c-3.81,0-4.46.86-4.46,3,0,2.81.22,3,5,4.25,9.79,2.59,10.73,3.89,10.73,11.09C284.91,58.54,282.82,62.71,272.23,62.71Z"/><path d="M284.77,15a4.59,4.59,0,0,1-4.67,4.67,4.64,4.64,0,1,1,0-9.28A4.57,4.57,0,0,1,284.77,15Zm-8.39,0a3.72,3.72,0,0,0,3.75,3.83,3.64,3.64,0,0,0,3.62-3.8,3.69,3.69,0,1,0-7.37,0Zm2.88,2.55h-.9V12.69a8.94,8.94,0,0,1,1.68-.15,2.27,2.27,0,0,1,1.51.38A1.25,1.25,0,0,1,282,14a1.24,1.24,0,0,1-.93,1.13v.06a1.49,1.49,0,0,1,.79,1.18,3.39,3.39,0,0,0,.37,1.19h-.93a3.78,3.78,0,0,1-.4-1.24c-.12-.55-.44-.79-1.1-.79h-.58Zm0-2.72h.6c.64,0,1.25-.21,1.25-.76s-.32-.81-1.16-.81a3.17,3.17,0,0,0-.69.06Z"/></svg>