<?xml version="1.0" encoding="utf-8"?>
<!-- Generator: Adobe Illustrator 24.1.1, SVG Export Plug-In . SVG Version: 6.00 Build 0)  -->
<svg version="1.1" id="Layer_1" xmlns="http://www.w3.org/2000/svg" xmlns:xlink="http://www.w3.org/1999/xlink" x="0px" y="0px"
	 viewBox="0 0 512 512" style="enable-background:new 0 0 512 512;" xml:space="preserve">
<style type="text/css">
	.st0{fill:#333333;}
</style>
<g id="XMLID_5_">
	<path id="XMLID_9_" class="st0" d="M204.8,58.7c40.2,0,77.3,16.1,103.4,43.2l-74.3,74.3h175.7V0.5l-60.2,60.2
		C312.2,23.6,261,0.5,204.8,0.5C101.4,0.5,16.1,76.8,2,176.2h59.2C74.3,108.9,133.5,58.7,204.8,58.7z M369.4,326.8
		c19.1-26.1,33.1-57.2,37.1-92.4h-59.2c-13.1,66.3-72.3,117.5-143.6,117.5c-40.2,0-77.3-16.1-103.4-43.2l74.3-74.3H0v175.7
		l60.2-60.2c37.1,37.1,88.3,60.2,144.6,60.2c45.2,0,87.3-15.1,121.5-40.2l142.6,141.6l43.2-43.2L369.4,326.8z"/>
</g>
</svg>
